<?xml version="1.0" encoding="UTF-8" standalone="no"?>
<svg
   xmlns:dc="http://purl.org/dc/elements/1.1/"
   xmlns:cc="http://creativecommons.org/ns#"
   xmlns:rdf="http://www.w3.org/1999/02/22-rdf-syntax-ns#"
   xmlns:svg="http://www.w3.org/2000/svg"
   xmlns="http://www.w3.org/2000/svg"
   xmlns:sodipodi="http://sodipodi.sourceforge.net/DTD/sodipodi-0.dtd"
   xmlns:inkscape="http://www.inkscape.org/namespaces/inkscape"
   sodipodi:docname="quest.svg"
   inkscape:version="1.0 (4035a4fb49, 2020-05-01)"
   width="16.0px"
   height="16.0px"
   viewBox="0 0 16.0 16.0"
   version="1.1"
   id="SVGRoot">
  <defs
     id="defs1984">
    <marker
       inkscape:isstock="true"
       style="overflow:visible"
       id="marker3776"
       refX="0.0"
       refY="0.0"
       orient="auto"
       inkscape:stockid="Arrow1Lstart">
      <path
         transform="scale(0.8) translate(12.5,0)"
         style="fill-rule:evenodd;stroke:none;stroke-width:1pt;stroke-opacity:1;fill:#068000;fill-opacity:1"
         d="M 0.0,0.0 L 5.0,-5.0 L -12.5,0.0 L 5.0,5.0 L 0.0,0.0 z "
         id="path3774" />
    </marker>
    <marker
       inkscape:isstock="true"
       style="overflow:visible"
       id="Arrow1Lstart"
       refX="0.0"
       refY="0.0"
       orient="auto"
       inkscape:stockid="Arrow1Lstart">
      <path
         transform="scale(0.8) translate(12.5,0)"
         style="fill-rule:evenodd;stroke:#000000;stroke-width:1.0pt"
         d="M 0.0,0.0 L 5.0,-5.0 L -12.5,0.0 L 5.0,5.0 L 0.0,0.0 z "
         id="path3504" />
    </marker>
    <filter
       height="1.0053323"
       y="-0.0026661655"
       width="1.0101696"
       x="-0.0050847824"
       id="filter3414"
       style="color-interpolation-filters:sRGB"
       inkscape:collect="always">
      <feGaussianBlur
         id="feGaussianBlur3416"
         stdDeviation="0.013191965"
         inkscape:collect="always" />
    </filter>
  </defs>
  <sodipodi:namedview
     inkscape:window-maximized="1"
     inkscape:window-y="-9"
     inkscape:window-x="-9"
     inkscape:window-height="1001"
     inkscape:window-width="1920"
     showgrid="true"
     inkscape:document-rotation="0"
     inkscape:current-layer="g3456"
     inkscape:document-units="px"
     inkscape:cy="8"
     inkscape:cx="8"
     inkscape:zoom="48.5625"
     inkscape:pageshadow="2"
     inkscape:pageopacity="0.0"
     borderopacity="1.0"
     bordercolor="#666666"
     pagecolor="#ffffff"
     id="base">
    <inkscape:grid
       type="xygrid"
       id="grid2554" />
  </sodipodi:namedview>
  <metadata
     id="metadata1987">
    <rdf:RDF>
      <cc:Work
         rdf:about="">
        <dc:format>image/svg+xml</dc:format>
        <dc:type
           rdf:resource="http://purl.org/dc/dcmitype/StillImage" />
        <dc:title></dc:title>
      </cc:Work>
    </rdf:RDF>
  </metadata>
  <g
     id="layer1"
     inkscape:groupmode="layer"
     inkscape:label="Layer 1">
    <g
       transform="matrix(1.1673053,0,0,1.1673053,0.31729662,-41.39131)"
       id="g3456"
       style="font-style:normal;font-weight:normal;font-size:15.4201px;line-height:1;font-family:sans-serif;fill:#3cff33;fill-opacity:1;stroke:#068000;stroke-width:0.428337;stroke-miterlimit:4;stroke-dasharray:none;stroke-opacity:1;filter:url(#filter3414)">
      <text
         id="text4236"
         y="37.172203"
         x="3.154876"
         style="font-style:normal;font-weight:normal;font-size:34.267px;line-height:1;font-family:sans-serif;fill:#000000;fill-opacity:1;stroke:none;stroke-width:0.366945"
         xml:space="preserve"><tspan
           style="stroke-width:0.366945"
           y="37.172203"
           x="3.154876"
           id="tspan4234"
           sodipodi:role="line" /></text>
      <g
         transform="translate(0.10313357,1.3306943)"
         id="g4285">
        <g
           style="font-size:13.7068px;line-height:1.25;font-family:sans-serif;stroke-width:0.366945"
           id="g4261"
           transform="translate(37.984232,-34.761728)">
          <path
             id="path4263"
             d="m -32.988487,71.850536 c 0.124932,0.133855 0.225324,0.278865 0.301175,0.43503 0.07585,0.151703 0.113777,0.305637 0.113777,0.461802 0,0.107084 -0.02008,0.207476 -0.06023,0.301175 -0.04015,0.08924 -0.09593,0.167319 -0.167319,0.234247 -0.06693,0.06693 -0.147241,0.120469 -0.24094,0.160626 -0.0937,0.03569 -0.196321,0.05354 -0.307868,0.05354 -0.102623,0 -0.200783,-0.01562 -0.294482,-0.04685 -0.0937,-0.03569 -0.178474,-0.08701 -0.254325,-0.153934 -0.07585,-0.06693 -0.136086,-0.149471 -0.180705,-0.247632 -0.04462,-0.09816 -0.06693,-0.214169 -0.06693,-0.348025 0,-0.200783 0.05577,-0.41272 0.16732,-0.635813 0.116008,-0.227555 0.283327,-0.435031 0.501958,-0.622428 0.223092,-0.187398 0.499726,-0.343563 0.829903,-0.468494 0.330177,-0.124932 0.709435,-0.187398 1.137772,-0.187398 0.423875,0 0.798671,0.06247 1.124386,0.187398 0.330177,0.124931 0.606811,0.292251 0.829904,0.501958 0.227554,0.205245 0.399335,0.441723 0.515343,0.709434 0.116009,0.267711 0.174013,0.546576 0.174013,0.836597 0,0.571117 -0.229785,1.106538 -0.689356,1.606265 -0.187398,0.205245 -0.399336,0.401567 -0.635814,0.588964 -0.236478,0.187398 -0.45957,0.383719 -0.669277,0.588964 -0.205245,0.205245 -0.379257,0.430569 -0.522036,0.675971 -0.138317,0.240939 -0.207476,0.517574 -0.207476,0.829903 0,0.06247 0.0022,0.136087 0.0067,0.220862 0.0089,0.08031 0.02008,0.165088 0.03346,0.254325 -0.07139,0.02677 -0.149472,0.04685 -0.234247,0.06024 -0.08031,0.0089 -0.158396,0.01339 -0.234247,0.01339 -0.07139,-0.281097 -0.107084,-0.542115 -0.107084,-0.783055 0,-0.232016 0.029,-0.441723 0.08701,-0.62912 0.05801,-0.187398 0.131627,-0.356948 0.220861,-0.508651 0.0937,-0.156165 0.196322,-0.298944 0.307868,-0.428338 0.116008,-0.133855 0.232016,-0.261018 0.348024,-0.381488 0.138317,-0.151703 0.267711,-0.298944 0.388181,-0.441723 0.12047,-0.142779 0.223093,-0.296713 0.307868,-0.461801 0.08924,-0.165089 0.158395,-0.345794 0.207476,-0.542115 0.05354,-0.200783 0.08031,-0.430569 0.08031,-0.689356 0,-0.303405 -0.0357,-0.559962 -0.107084,-0.769669 -0.07139,-0.214169 -0.171782,-0.388181 -0.301175,-0.522036 -0.129394,-0.133855 -0.285559,-0.229785 -0.468494,-0.287789 -0.178474,-0.06247 -0.379257,-0.0937 -0.60235,-0.0937 -0.267711,0 -0.519805,0.04239 -0.756283,0.127163 -0.236478,0.08477 -0.428338,0.21863 -0.575579,0.401566 z m 1.218085,8.847847 c -0.129394,0 -0.249864,-0.02231 -0.36141,-0.06693 -0.107085,-0.04462 -0.203014,-0.107086 -0.287789,-0.187397 -0.08478,-0.08031 -0.151703,-0.176243 -0.200783,-0.28779 -0.04462,-0.111546 -0.06693,-0.234247 -0.06693,-0.368102 0,-0.133856 0.02454,-0.256557 0.07362,-0.368103 0.04908,-0.116008 0.113777,-0.214169 0.194091,-0.294482 0.08478,-0.08031 0.182935,-0.142779 0.294482,-0.187398 0.111546,-0.04908 0.232016,-0.07362 0.36141,-0.07362 0.124931,0 0.24317,0.02231 0.354717,0.06693 0.111546,0.04462 0.209707,0.107086 0.294482,0.187397 0.08478,0.08031 0.149471,0.176243 0.19409,0.28779 0.04908,0.111546 0.07362,0.234247 0.07362,0.368102 0,0.133855 -0.02454,0.258787 -0.07362,0.374795 -0.04462,0.111547 -0.109317,0.209708 -0.19409,0.294483 -0.08478,0.08031 -0.182936,0.142778 -0.294482,0.187397 -0.111547,0.04462 -0.232017,0.06693 -0.36141,0.06693 z"
             style="color:#000000;font-style:normal;font-variant:normal;font-weight:normal;font-stretch:normal;font-size:medium;line-height:1.25;font-family:'Javanese Text';-inkscape-font-specification:'Javanese Text';font-variant-ligatures:normal;font-variant-position:normal;font-variant-caps:normal;font-variant-numeric:normal;font-variant-alternates:normal;font-variant-east-asian:normal;font-feature-settings:normal;font-variation-settings:normal;text-indent:0;text-align:center;text-decoration:none;text-decoration-line:none;text-decoration-style:solid;text-decoration-color:#000000;letter-spacing:normal;word-spacing:normal;text-transform:none;writing-mode:lr-tb;direction:ltr;text-orientation:mixed;dominant-baseline:auto;baseline-shift:baseline;text-anchor:middle;white-space:normal;shape-padding:0;shape-margin:0;inline-size:0;clip-rule:nonzero;display:inline;overflow:visible;visibility:visible;isolation:auto;mix-blend-mode:normal;color-interpolation:sRGB;color-interpolation-filters:linearRGB;solid-color:#000000;solid-opacity:1;vector-effect:none;fill:#3cff33;fill-opacity:1;fill-rule:nonzero;stroke:none;stroke-width:0.366945;stroke-linecap:butt;stroke-linejoin:miter;stroke-miterlimit:4;stroke-dasharray:none;stroke-dashoffset:0;stroke-opacity:1;color-rendering:auto;image-rendering:auto;shape-rendering:auto;text-rendering:auto;enable-background:accumulate;stop-color:#000000;stop-opacity:1" />
          <path
             id="path4265"
             d="m -31.509766,70.603516 c -0.446175,0 -0.848386,0.06499 -1.203125,0.199218 -0.345783,0.130837 -0.640962,0.296846 -0.882812,0.5 -0.234317,0.200843 -0.418941,0.426786 -0.546875,0.677735 v 0.002 c -0.121393,0.242785 -0.1875,0.483991 -0.1875,0.71875 0,0.154242 0.02636,0.297066 0.08398,0.423828 0.05433,0.119516 0.130726,0.224033 0.226563,0.308594 0.09182,0.08102 0.196589,0.144089 0.310547,0.1875 l 0.002,0.002 0.0039,0.002 c 0.112762,0.03759 0.23228,0.05469 0.353516,0.05469 0.131116,0 0.256714,-0.02014 0.373047,-0.06445 l 0.0039,-0.002 0.002,-0.002 c 0.111376,-0.04773 0.211466,-0.112875 0.294922,-0.195312 l 0.002,-0.002 c 0.08762,-0.08263 0.157601,-0.181162 0.207031,-0.291015 h 0.002 v -0.002 c 0.05012,-0.116959 0.07422,-0.243031 0.07422,-0.373047 0,-0.18587 -0.0457,-0.370695 -0.132813,-0.544922 -0.0548,-0.112413 -0.137648,-0.211232 -0.214843,-0.3125 0.110761,-0.107849 0.223519,-0.211026 0.386719,-0.269531 0.215774,-0.07735 0.446968,-0.115235 0.695312,-0.115235 0.205968,0 0.38504,0.02744 0.541016,0.08203 l 0.002,0.002 h 0.0039 c 0.156056,0.04948 0.28401,0.127922 0.392578,0.240234 0.107127,0.110822 0.193312,0.259626 0.257813,0.453125 v 0.002 c 0.06269,0.184154 0.09766,0.419969 0.09766,0.708985 0,0.246134 -0.02574,0.460756 -0.07422,0.642578 v 0.002 0.002 c -0.04567,0.182678 -0.109945,0.347343 -0.191406,0.498047 v 0.002 l -0.002,0.002 c -0.07846,0.152792 -0.173483,0.295381 -0.285156,0.427734 -0.118806,0.140807 -0.245936,0.285424 -0.382813,0.435547 -0.117119,0.121765 -0.234808,0.25005 -0.351563,0.384766 v 0.002 c -0.118791,0.137799 -0.227448,0.288588 -0.326171,0.453125 v 0.002 c -0.09716,0.165185 -0.176552,0.34745 -0.238282,0.546875 -0.06433,0.20783 -0.0957,0.436288 -0.0957,0.683594 0,0.259061 0.03881,0.534907 0.113282,0.828125 l 0.03516,0.138672 h 0.142578 c 0.08305,0 0.16729,-0.006 0.253906,-0.01563 h 0.0039 0.0039 c 0.09555,-0.01509 0.187151,-0.03869 0.271484,-0.07031 l 0.138672,-0.05273 -0.02148,-0.146484 c -0.01307,-0.08717 -0.02456,-0.170322 -0.0332,-0.248047 -0.0039,-0.07661 -0.0059,-0.14435 -0.0059,-0.199219 0,-0.285245 0.06232,-0.527029 0.183594,-0.738281 h -0.002 c 0.134285,-0.230804 0.298619,-0.442823 0.492187,-0.636719 l 0.002,-0.002 c 0.204454,-0.199968 0.423414,-0.391254 0.654297,-0.574219 0.243543,-0.192996 0.461689,-0.396284 0.65625,-0.609375 0.483144,-0.52536 0.738281,-1.110139 0.738281,-1.730469 0,-0.314483 -0.06383,-0.620267 -0.189453,-0.910156 -0.126246,-0.291337 -0.31412,-0.548518 -0.558594,-0.769531 -0.242367,-0.227825 -0.540229,-0.407007 -0.888671,-0.539063 -0.350563,-0.134462 -0.749506,-0.199218 -1.191407,-0.199218 z m 0,0.367187 c 0.40585,0 0.757726,0.05843 1.058594,0.173828 h 0.002 c 0.311189,0.117747 0.56415,0.273621 0.767578,0.464844 l 0.002,0.002 h 0.002 c 0.209608,0.189058 0.363342,0.403235 0.46875,0.646484 0.106398,0.245533 0.160156,0.498115 0.160156,0.763672 0,0.521904 -0.204628,1.008329 -0.640625,1.482422 h -0.002 c -0.180235,0.1974 -0.383868,0.386561 -0.613282,0.56836 -0.241341,0.191252 -0.469198,0.393681 -0.683593,0.603515 h -0.002 c -0.216057,0.216057 -0.399966,0.455629 -0.550782,0.714844 -0.155359,0.270626 -0.232421,0.582462 -0.232422,0.921875 0,0.06684 0.0032,0.14333 0.0078,0.230469 v 0.0039 0.0059 c 0.0034,0.03096 0.0096,0.06554 0.01367,0.09766 -0.01833,0.004 -0.03329,0.01046 -0.05273,0.01367 -0.01902,0.0021 -0.03602,0.0023 -0.05469,0.0039 -0.04336,-0.207581 -0.08203,-0.411788 -0.08203,-0.589844 0,-0.216726 0.02644,-0.409207 0.07813,-0.576172 0.05401,-0.174489 0.122362,-0.32909 0.203125,-0.466797 l 0.002,-0.002 c 0.08827,-0.146833 0.18338,-0.282018 0.287109,-0.402344 0.114026,-0.131568 0.228144,-0.255022 0.341797,-0.373047 l 0.002,-0.002 0.002,-0.002 c 0.139758,-0.153282 0.270444,-0.302513 0.392579,-0.447265 0.128326,-0.152091 0.237417,-0.316263 0.328124,-0.492188 v -0.002 c 0.0966,-0.179045 0.172271,-0.37463 0.22461,-0.583984 0.05797,-0.218865 0.08594,-0.464352 0.08594,-0.734375 0,-0.317061 -0.03748,-0.591269 -0.117187,-0.826172 v -0.002 c -0.07826,-0.234084 -0.190513,-0.433343 -0.341797,-0.589844 -0.149199,-0.154343 -0.332963,-0.267279 -0.541016,-0.333984 -5.78e-4,-2.03e-4 -0.0014,2.01e-4 -0.002,0 -0.200513,-0.06993 -0.420631,-0.103516 -0.660156,-0.103516 -0.287077,0 -0.561178,0.04452 -0.818359,0.136719 -0.264555,0.09484 -0.487607,0.251411 -0.65625,0.460937 l -0.09961,0.123047 0.107422,0.117187 c 0.113286,0.121377 0.203928,0.249585 0.271485,0.388672 v 0.002 c 0.06459,0.129179 0.09375,0.254399 0.09375,0.380859 0,0.08346 -0.01523,0.156638 -0.04492,0.226562 -2.47e-4,5.81e-4 2.48e-4,0.0014 0,0.002 -0.03029,0.06601 -0.0699,0.122053 -0.123047,0.171876 l -0.0039,0.002 -0.002,0.002 c -0.04768,0.04768 -0.105485,0.08791 -0.175781,0.11914 -5.55e-4,2.12e-4 -0.0014,-2.1e-4 -0.002,0 -0.07064,0.02666 -0.148976,0.04297 -0.240234,0.04297 -0.08333,0 -0.16029,-0.01458 -0.234375,-0.03906 h -0.002 c -0.07009,-0.02774 -0.133761,-0.06632 -0.191406,-0.117188 -0.05587,-0.04929 -0.09985,-0.108741 -0.134765,-0.185547 -0.03162,-0.06956 -0.05078,-0.158015 -0.05078,-0.271484 0,-0.166806 0.04674,-0.351287 0.148438,-0.554688 0.104041,-0.203272 0.254851,-0.391156 0.457031,-0.564453 0.204148,-0.171219 0.461421,-0.318701 0.775391,-0.4375 0.305616,-0.115638 0.661766,-0.173828 1.072265,-0.173828 z m -0.253906,7.710938 c -0.150486,0 -0.295755,0.02796 -0.429687,0.08594 -8.53e-4,3.41e-4 -0.0011,0.0016 -0.002,0.002 -0.130892,0.05272 -0.248641,0.127001 -0.34961,0.222657 l -0.002,0.002 -0.002,0.002 c -0.0977,0.0977 -0.175372,0.215587 -0.232422,0.349609 -0.05998,0.136309 -0.08984,0.287079 -0.08984,0.443359 0,0.154242 0.02606,0.300504 0.08008,0.435547 l 0.002,0.002 v 0.0039 c 0.05823,0.132332 0.141411,0.250334 0.24414,0.347656 0.100459,0.09517 0.214504,0.169616 0.341797,0.222656 h 0.002 l 0.002,0.002 c 0.13426,0.05371 0.279204,0.08008 0.429688,0.08008 0.150481,10e-7 0.293473,-0.02637 0.427734,-0.08008 0.131909,-0.05276 0.251889,-0.128332 0.353516,-0.224609 l 0.002,-0.002 0.002,-0.002 c 0.100809,-0.100812 0.1789,-0.221279 0.232422,-0.353516 v -0.002 c 0.05845,-0.138836 0.08789,-0.287739 0.08789,-0.443359 -1e-6,-0.154161 -0.0276,-0.302691 -0.08594,-0.4375 l -0.002,-0.002 c -0.05385,-0.133603 -0.133097,-0.251811 -0.236328,-0.34961 -0.101627,-0.09628 -0.221608,-0.171844 -0.353516,-0.224609 -0.133477,-0.05339 -0.275101,-0.08008 -0.421875,-0.08008 z m 0,0.367187 c 0.103089,0 0.197493,0.01689 0.28711,0.05273 0.09118,0.03647 0.168403,0.08604 0.236328,0.150391 0.06565,0.0622 0.115013,0.134214 0.15039,0.222656 v 0.0039 l 0.002,0.002 c 0.03818,0.08678 0.05664,0.183491 0.05664,0.294922 0,0.111431 -0.01938,0.210047 -0.05859,0.302734 v 0.002 0.002 c -0.03569,0.08923 -0.08659,0.164717 -0.154297,0.232422 -0.06697,0.06255 -0.142994,0.110713 -0.232421,0.146485 -0.08883,0.03553 -0.184665,0.05469 -0.292969,0.05469 -0.107611,0 -0.204613,-0.0196 -0.292969,-0.05469 h -0.002 c -0.08519,-0.03605 -0.160504,-0.08596 -0.228516,-0.150391 -0.06514,-0.06171 -0.116715,-0.134986 -0.15625,-0.222656 -0.03522,-0.08805 -0.05469,-0.18536 -0.05469,-0.298829 0,-0.111431 0.02041,-0.208138 0.05859,-0.294921 v -0.002 c 0.04101,-0.09693 0.09395,-0.174034 0.15625,-0.236329 0.06715,-0.06289 0.142659,-0.110579 0.232421,-0.146484 l 0.002,-0.002 0.0039,-0.002 c 0.08761,-0.03855 0.180913,-0.05664 0.287109,-0.05664 z"
             style="color:#000000;font-style:normal;font-variant:normal;font-weight:normal;font-stretch:normal;font-size:medium;line-height:1.25;font-family:'Javanese Text';-inkscape-font-specification:'Javanese Text';font-variant-ligatures:normal;font-variant-position:normal;font-variant-caps:normal;font-variant-numeric:normal;font-variant-alternates:normal;font-variant-east-asian:normal;font-feature-settings:normal;font-variation-settings:normal;text-indent:0;text-align:center;text-decoration:none;text-decoration-line:none;text-decoration-style:solid;text-decoration-color:#000000;letter-spacing:normal;word-spacing:normal;text-transform:none;writing-mode:lr-tb;direction:ltr;text-orientation:mixed;dominant-baseline:auto;baseline-shift:baseline;text-anchor:middle;white-space:normal;shape-padding:0;shape-margin:0;inline-size:0;clip-rule:nonzero;display:inline;overflow:visible;visibility:visible;isolation:auto;mix-blend-mode:normal;color-interpolation:sRGB;color-interpolation-filters:linearRGB;solid-color:#000000;solid-opacity:1;vector-effect:none;fill:#068000;fill-opacity:1;fill-rule:nonzero;stroke:none;stroke-width:0.366945;stroke-linecap:butt;stroke-linejoin:miter;stroke-miterlimit:4;stroke-dasharray:none;stroke-dashoffset:0;stroke-opacity:1;color-rendering:auto;image-rendering:auto;shape-rendering:auto;text-rendering:auto;enable-background:accumulate;stop-color:#000000;stop-opacity:1" />
        </g>
      </g>
    </g>
  </g>
</svg>
